<?xml version="1.0" standalone="no"?>
<svg xmlns="http://www.w3.org/2000/svg" xmlns:xlink="http://www.w3.org/1999/xlink" width="372pt" height="400pt" viewBox="0.00 0.00 371.50 400.00">
<g id="graph0" class="graph" transform="translate(4,396) scale(1)" data-name="G">

<polygon fill="#2e3e56" stroke="none" points="-4,4 -4,-396 367.5,-396 367.5,4 -4,4" style=""/>
<g id="clust1" class="cluster" data-name="clusterEverValueCoin">

<path fill="#445773" stroke="#445773" d="M20,-8C20,-8 343.5,-8 343.5,-8 349.5,-8 355.5,-14 355.5,-20 355.5,-20 355.5,-235 355.5,-235 355.5,-241 349.5,-247 343.5,-247 343.5,-247 20,-247 20,-247 14,-247 8,-241 8,-235 8,-235 8,-20 8,-20 8,-14 14,-8 20,-8" style=""/>
<text text-anchor="middle" x="181.75" y="-230.4" font-family="Times,serif" font-size="14.00" fill="#f0f0f0" style="">EverValueCoin</text>
</g>
<g id="clust2" class="cluster" data-name="cluster_01">

<polygon fill="#2e3e56" stroke="black" points="10.53,-255 10.53,-384 302.28,-384 302.28,-255 10.53,-255" style=""/>
<text text-anchor="middle" x="156.4" y="-367.4" font-family="Times,serif" font-size="14.00" style="">Legend</text>
</g>
<!-- EverValueCoin.&lt;Constructor&gt; -->
<g id="node1" class="node" pointer-events="visible" data-name="EverValueCoin.&lt;Constructor&gt;">

<ellipse fill="#ff9797" stroke="#ff9797" stroke-width="3" cx="83.53" cy="-196" rx="67.55" ry="18" style=""/>
<text text-anchor="middle" x="83.53" y="-191.8" font-family="Times,serif" font-size="14.00" style="">&lt;Constructor&gt;</text>
</g>
<!-- EverValueCoin._mint -->
<g id="node4" class="node" pointer-events="visible" data-name="EverValueCoin._mint">

<ellipse fill="#edad56" stroke="#edad56" stroke-width="3" cx="267.28" cy="-196" rx="33.64" ry="18" style=""/>
<text text-anchor="middle" x="267.28" y="-191.8" font-family="Times,serif" font-size="14.00" style="">_mint</text>
</g>
<!-- EverValueCoin.&lt;Constructor&gt;&#45;&gt;EverValueCoin._mint -->
<g id="edge1" class="edge" data-name="EverValueCoin.&lt;Constructor&gt;-&gt;EverValueCoin._mint">

<path fill="none" stroke="#1bc6a6" stroke-width="2" d="M152.46,-196C174.79,-196 199.1,-196 219.5,-196" style=""/>
<polygon fill="#1bc6a6" stroke="#1bc6a6" stroke-width="2" points="219.25,-199.5 229.25,-196 219.25,-192.5 219.25,-199.5" style=""/>
</g>
<!-- EverValueCoin.burn -->
<g id="node2" class="node" pointer-events="visible" data-name="EverValueCoin.burn">

<ellipse fill="#ff9797" stroke="#ff9797" stroke-width="3" cx="83.53" cy="-142" rx="28.98" ry="18" style=""/>
<text text-anchor="middle" x="83.53" y="-137.8" font-family="Times,serif" font-size="14.00" style="">burn</text>
</g>
<!-- EverValueCoin._burn -->
<g id="node5" class="node" pointer-events="visible" data-name="EverValueCoin._burn">

<ellipse fill="#edad56" stroke="#edad56" stroke-width="3" cx="267.28" cy="-88" rx="33.63" ry="18" style=""/>
<text text-anchor="middle" x="267.28" y="-83.8" font-family="Times,serif" font-size="14.00" style="">_burn</text>
</g>
<!-- EverValueCoin.burn&#45;&gt;EverValueCoin._burn -->
<g id="edge2" class="edge" data-name="EverValueCoin.burn-&gt;EverValueCoin._burn">

<path fill="none" stroke="#1bc6a6" stroke-width="2" d="M111.34,-134.03C141.07,-125.2 189.4,-110.84 224.18,-100.51" style=""/>
<polygon fill="#1bc6a6" stroke="#1bc6a6" stroke-width="2" points="224.83,-103.97 233.42,-97.76 222.84,-97.26 224.83,-103.97" style=""/>
</g>
<!-- EverValueCoin._msgSender -->
<g id="node6" class="node" pointer-events="visible" data-name="EverValueCoin._msgSender">

<ellipse fill="#edad56" stroke="#edad56" stroke-width="3" cx="267.28" cy="-142" rx="58.56" ry="18" style=""/>
<text text-anchor="middle" x="267.28" y="-137.8" font-family="Times,serif" font-size="14.00" style="">_msgSender</text>
</g>
<!-- EverValueCoin.burn&#45;&gt;EverValueCoin._msgSender -->
<g id="edge3" class="edge" data-name="EverValueCoin.burn-&gt;EverValueCoin._msgSender">

<path fill="none" stroke="#1bc6a6" stroke-width="2" d="M113.73,-142C135.57,-142 166.41,-142 194.65,-142" style=""/>
<polygon fill="#1bc6a6" stroke="#1bc6a6" stroke-width="2" points="194.38,-145.5 204.38,-142 194.38,-138.5 194.38,-145.5" style=""/>
</g>
<!-- EverValueCoin.burnFrom -->
<g id="node3" class="node" pointer-events="visible" data-name="EverValueCoin.burnFrom">

<ellipse fill="#ff9797" stroke="#ff9797" stroke-width="3" cx="83.53" cy="-88" rx="49.83" ry="18" style=""/>
<text text-anchor="middle" x="83.53" y="-83.8" font-family="Times,serif" font-size="14.00" style="">burnFrom</text>
</g>
<!-- EverValueCoin.burnFrom&#45;&gt;EverValueCoin._burn -->
<g id="edge6" class="edge" data-name="EverValueCoin.burnFrom-&gt;EverValueCoin._burn">

<path fill="none" stroke="#1bc6a6" stroke-width="2" d="M134.67,-88C161.16,-88 193.46,-88 219.43,-88" style=""/>
<polygon fill="#1bc6a6" stroke="#1bc6a6" stroke-width="2" points="219.35,-91.5 229.35,-88 219.35,-84.5 219.35,-91.5" style=""/>
</g>
<!-- EverValueCoin.burnFrom&#45;&gt;EverValueCoin._msgSender -->
<g id="edge5" class="edge" data-name="EverValueCoin.burnFrom-&gt;EverValueCoin._msgSender">

<path fill="none" stroke="#1bc6a6" stroke-width="2" d="M123.96,-99.72C149.22,-107.22 182.39,-117.08 210.35,-125.38" style=""/>
<polygon fill="#1bc6a6" stroke="#1bc6a6" stroke-width="2" points="209.3,-128.72 219.88,-128.21 211.29,-122.01 209.3,-128.72" style=""/>
</g>
<!-- EverValueCoin._spendAllowance -->
<g id="node7" class="node" pointer-events="visible" data-name="EverValueCoin._spendAllowance">

<ellipse fill="#edad56" stroke="#edad56" stroke-width="3" cx="267.28" cy="-34" rx="80.45" ry="18" style=""/>
<text text-anchor="middle" x="267.28" y="-29.8" font-family="Times,serif" font-size="14.00" style="">_spendAllowance</text>
</g>
<!-- EverValueCoin.burnFrom&#45;&gt;EverValueCoin._spendAllowance -->
<g id="edge4" class="edge" data-name="EverValueCoin.burnFrom-&gt;EverValueCoin._spendAllowance">

<path fill="none" stroke="#1bc6a6" stroke-width="2" d="M123.96,-76.28C147.13,-69.4 176.94,-60.54 203.29,-52.72" style=""/>
<polygon fill="#1bc6a6" stroke="#1bc6a6" stroke-width="2" points="204.01,-56.15 212.6,-49.95 202.02,-49.44 204.01,-56.15" style=""/>
</g>
<!-- key -->
<g id="node8" class="node" pointer-events="visible" data-name="key">

<polygon fill="#edad56" stroke="none" stroke-width="3" points="148.53,-351 18.53,-351 18.53,-263 148.53,-263 148.53,-351" style=""/>
<text text-anchor="start" x="68.16" y="-332.4" font-family="Times,serif" font-size="14.00" style="">Internal Call</text>
<text text-anchor="start" x="64.27" y="-312.4" font-family="Times,serif" font-size="14.00" style="">External Call</text>
<text text-anchor="start" x="41.73" y="-292.4" font-family="Times,serif" font-size="14.00" style="">Defined Contract</text>
<text text-anchor="start" x="28.13" y="-272.4" font-family="Times,serif" font-size="14.00" style="">Undefined Contract</text>
</g>
<!-- key2 -->
<g id="node9" class="node" pointer-events="visible" data-name="key2">

<polygon fill="#edad56" stroke="none" stroke-width="3" points="294.28,-351 240.28,-351 240.28,-263 294.28,-263 294.28,-351" style=""/>
<text text-anchor="start" x="257.28" y="-332.4" font-family="Times,serif" font-size="14.00" style="">   </text>
<text text-anchor="start" x="257.28" y="-312.4" font-family="Times,serif" font-size="14.00" style="">   </text>
<polygon fill="#445773" stroke="none" points="255.28,-287 255.28,-307 280.28,-307 280.28,-287 255.28,-287" style=""/>
<text text-anchor="start" x="257.28" y="-292.4" font-family="Times,serif" font-size="14.00" style="">   </text>
<polygon fill="none" stroke="#e8726d" points="257.28,-269 257.28,-285 278.28,-285 278.28,-269 257.28,-269" style=""/>
</g>
<!-- key&#45;&gt;key2 -->
<g id="edge7" class="edge" data-name="key-&gt;key2">

<path fill="none" stroke="#1bc6a6" stroke-width="2" d="M141.53,-337C187.04,-337 201.55,-337 241.37,-337" style=""/>
<polygon fill="#1bc6a6" stroke="#1bc6a6" stroke-width="2" points="241.25,-340.5 251.25,-337 241.25,-333.5 241.25,-340.5" style=""/>
</g>
<!-- key&#45;&gt;key2 -->
<g id="edge8" class="edge" data-name="key-&gt;key2">

<path fill="none" stroke="white" stroke-width="2" d="M141.53,-317C187.04,-317 201.55,-317 241.37,-317" style=""/>
<polygon fill="white" stroke="white" stroke-width="2" points="241.25,-320.5 251.25,-317 241.25,-313.5 241.25,-320.5" style=""/>
</g>
</g>
</svg>